<svg xmlns="http://www.w3.org/2000/svg" width="40" height="40"><path data-name="パス 1374" d="M24.138 15.212a28.986 28.986 0 01.235 4.585 21.663 21.663 0 01-.328 4.773l-2.66-2.113-2.05 2.363 2.911 2.316a3.846 3.846 0 01-2.551.8 4.69 4.69 0 01-3.536-1.659 3.8 3.8 0 01-.892-1.925 26.637 26.637 0 01-.25-4.554 27.268 27.268 0 01.25-4.585 3.774 3.774 0 01.892-1.893 4.35 4.35 0 011.439-1.173 4.782 4.782 0 012.1-.485 5.035 5.035 0 012.144.485 4.112 4.112 0 011.377 1.173 3.991 3.991 0 01.919 1.892zM40 20A20 20 0 1120 0a20 20 0 0120 20zm-9.993 9.342l-3-2.394a5.968 5.968 0 00.673-2.191q.157-1.408.156-4.961a43.929 43.929 0 00-.2-5.321 5.248 5.248 0 00-.8-2.175 7.667 7.667 0 00-2.6-2.817A7.973 7.973 0 0019.698 8.2a8.075 8.075 0 00-7.151 4.1 6.31 6.31 0 00-.767 2.175 60.186 60.186 0 000 10.61 6.433 6.433 0 00.313 1.221q.2.469.454.985a7.636 7.636 0 002.66 2.786 8.008 8.008 0 004.491 1.315 7.7 7.7 0 005.383-1.988l2.879 2.316z" fill="#e8340b"/></svg>