<svg id="icon-q" xmlns="http://www.w3.org/2000/svg" width="40" height="40" viewBox="0 0 40 40">
  <path id="パス_1374" data-name="パス 1374" d="M329.138,1043.212a28.986,28.986,0,0,1,.235,4.585,21.663,21.663,0,0,1-.328,4.773l-2.66-2.113-2.05,2.363,2.911,2.316a3.846,3.846,0,0,1-2.551.8,4.69,4.69,0,0,1-3.536-1.659,3.8,3.8,0,0,1-.892-1.925,26.637,26.637,0,0,1-.25-4.554,27.268,27.268,0,0,1,.25-4.585,3.774,3.774,0,0,1,.892-1.893,4.35,4.35,0,0,1,1.439-1.173,4.782,4.782,0,0,1,2.1-.485,5.035,5.035,0,0,1,2.144.485,4.112,4.112,0,0,1,1.377,1.173A3.991,3.991,0,0,1,329.138,1043.212ZM345,1048a20,20,0,1,1-20-20A20,20,0,0,1,345,1048Zm-9.993,9.342-3-2.394a5.968,5.968,0,0,0,.673-2.191q.157-1.408.156-4.961a43.929,43.929,0,0,0-.2-5.321,5.248,5.248,0,0,0-.8-2.175,7.667,7.667,0,0,0-2.6-2.817,7.973,7.973,0,0,0-4.538-1.283,8.075,8.075,0,0,0-7.151,4.1,6.31,6.31,0,0,0-.767,2.175,60.186,60.186,0,0,0,0,10.61,6.433,6.433,0,0,0,.313,1.221q.2.469.454.985a7.636,7.636,0,0,0,2.66,2.786,8.008,8.008,0,0,0,4.491,1.315,7.7,7.7,0,0,0,5.383-1.988l2.879,2.316Z" transform="translate(-305 -1028)" fill="#e8340b"/>
</svg>
